<svg width="245" height="64" viewBox="0 0 245 64" fill="none" xmlns="http://www.w3.org/2000/svg">
<g filter="url(#filter0_d_70_5)">
<rect x="4" width="237" height="56" rx="28" fill="#00B3EC" shape-rendering="crispEdges"/>
<rect x="4" width="237" height="56" rx="28" fill="#00B3EC" shape-rendering="crispEdges"/>
<rect x="4" width="237" height="56" rx="28" fill="#00B3EC" shape-rendering="crispEdges"/>
<rect x="4" width="237" height="56" rx="28" fill="#00B3EC" shape-rendering="crispEdges"/>
<path d="M26.8 35V22.22H20.4V20.6H34.8V22.22H28.42V35H26.8ZM38.6158 35C38.1758 35 37.7691 34.8933 37.3958 34.68C37.0358 34.4533 36.7424 34.16 36.5158 33.8C36.3024 33.4267 36.1958 33.02 36.1958 32.58V25.82C36.1958 25.38 36.3024 24.98 36.5158 24.62C36.7424 24.2467 37.0358 23.9533 37.3958 23.74C37.7691 23.5133 38.1758 23.4 38.6158 23.4H45.5758C46.0291 23.4 46.4358 23.5133 46.7958 23.74C47.1691 23.9533 47.4624 24.2467 47.6758 24.62C47.9024 24.98 48.0158 25.38 48.0158 25.82V30.02H37.8358V32.58C37.8358 32.7933 37.9091 32.98 38.0558 33.14C38.2158 33.2867 38.4024 33.36 38.6158 33.36H48.0158V35H38.6158ZM37.8358 28.38H46.3558V25.82C46.3558 25.6067 46.2758 25.4267 46.1158 25.28C45.9691 25.12 45.7891 25.04 45.5758 25.04H38.6158C38.4024 25.04 38.2158 25.12 38.0558 25.28C37.9091 25.4267 37.8358 25.6067 37.8358 25.82V28.38ZM52.0928 35C51.6528 35 51.2461 34.8933 50.8728 34.68C50.5128 34.4533 50.2195 34.16 49.9928 33.8C49.7795 33.4267 49.6728 33.02 49.6728 32.58V19.6H51.3128V32.58C51.3128 32.7933 51.3861 32.98 51.5328 33.14C51.6928 33.2867 51.8795 33.36 52.0928 33.36H54.0528V35H52.0928ZM57.815 35C57.375 35 56.9683 34.8933 56.595 34.68C56.235 34.4533 55.9417 34.16 55.715 33.8C55.5017 33.4267 55.395 33.02 55.395 32.58V25.82C55.395 25.38 55.5017 24.98 55.715 24.62C55.9417 24.2467 56.235 23.9533 56.595 23.74C56.9683 23.5133 57.375 23.4 57.815 23.4H64.775C65.2283 23.4 65.635 23.5133 65.995 23.74C66.3683 23.9533 66.6617 24.2467 66.875 24.62C67.1017 24.98 67.215 25.38 67.215 25.82V30.02H57.035V32.58C57.035 32.7933 57.1083 32.98 57.255 33.14C57.415 33.2867 57.6017 33.36 57.815 33.36H67.215V35H57.815ZM57.035 28.38H65.555V25.82C65.555 25.6067 65.475 25.4267 65.315 25.28C65.1683 25.12 64.9883 25.04 64.775 25.04H57.815C57.6017 25.04 57.415 25.12 57.255 25.28C57.1083 25.4267 57.035 25.6067 57.035 25.82V28.38ZM71.6627 35C71.2227 35 70.816 34.8933 70.4427 34.68C70.0827 34.4533 69.7893 34.16 69.5627 33.8C69.3493 33.4267 69.2427 33.02 69.2427 32.58V25.82C69.2427 25.38 69.3493 24.98 69.5627 24.62C69.7893 24.2467 70.0827 23.9533 70.4427 23.74C70.816 23.5133 71.2227 23.4 71.6627 23.4H78.6227C79.076 23.4 79.4827 23.5133 79.8427 23.74C80.216 23.9533 80.5093 24.2467 80.7227 24.62C80.9493 24.98 81.0627 25.38 81.0627 25.82V32.58C81.0627 33.02 80.9493 33.4267 80.7227 33.8C80.5093 34.16 80.216 34.4533 79.8427 34.68C79.4827 34.8933 79.076 35 78.6227 35H71.6627ZM71.6627 33.36H78.6227C78.836 33.36 79.016 33.2867 79.1627 33.14C79.3227 32.98 79.4027 32.7933 79.4027 32.58V25.82C79.4027 25.6067 79.3227 25.4267 79.1627 25.28C79.016 25.12 78.836 25.04 78.6227 25.04H71.6627C71.4493 25.04 71.2627 25.12 71.1027 25.28C70.956 25.4267 70.8827 25.6067 70.8827 25.82V32.58C70.8827 32.7933 70.956 32.98 71.1027 33.14C71.2627 33.2867 71.4493 33.36 71.6627 33.36ZM83.1503 39.6V23.4H92.5503C92.9903 23.4 93.3903 23.5133 93.7503 23.74C94.1236 23.9533 94.417 24.2467 94.6303 24.62C94.857 24.98 94.9703 25.38 94.9703 25.82V32.58C94.9703 33.02 94.857 33.4267 94.6303 33.8C94.417 34.16 94.1236 34.4533 93.7503 34.68C93.3903 34.8933 92.9903 35 92.5503 35H84.7903V39.6H83.1503ZM85.5903 33.36H92.5503C92.7636 33.36 92.9436 33.2867 93.0903 33.14C93.2503 32.98 93.3303 32.7933 93.3303 32.58V25.82C93.3303 25.6067 93.2503 25.4267 93.0903 25.28C92.9436 25.12 92.7636 25.04 92.5503 25.04H85.5903C85.377 25.04 85.1903 25.12 85.0303 25.28C84.8703 25.4267 84.7903 25.6067 84.7903 25.82V32.58C84.7903 32.7933 84.8703 32.98 85.0303 33.14C85.1903 33.2867 85.377 33.36 85.5903 33.36ZM98.7916 35C98.3516 35 97.9449 34.8933 97.5716 34.68C97.2116 34.4533 96.9182 34.16 96.6916 33.8C96.4782 33.4267 96.3716 33.02 96.3716 32.58V25.82C96.3716 25.38 96.4782 24.98 96.6916 24.62C96.9182 24.2467 97.2116 23.9533 97.5716 23.74C97.9449 23.5133 98.3516 23.4 98.7916 23.4H105.752C106.205 23.4 106.612 23.5133 106.972 23.74C107.345 23.9533 107.638 24.2467 107.852 24.62C108.078 24.98 108.192 25.38 108.192 25.82V30.02H98.0116V32.58C98.0116 32.7933 98.0849 32.98 98.2316 33.14C98.3916 33.2867 98.5782 33.36 98.7916 33.36H108.192V35H98.7916ZM98.0116 28.38H106.532V25.82C106.532 25.6067 106.452 25.4267 106.292 25.28C106.145 25.12 105.965 25.04 105.752 25.04H98.7916C98.5782 25.04 98.3916 25.12 98.2316 25.28C98.0849 25.4267 98.0116 25.6067 98.0116 25.82V28.38ZM110.142 35V25.82C110.142 25.38 110.248 24.98 110.462 24.62C110.688 24.2467 110.982 23.9533 111.342 23.74C111.715 23.5133 112.122 23.4 112.562 23.4H119.082V25.04H112.562C112.348 25.04 112.162 25.12 112.002 25.28C111.855 25.4267 111.782 25.6067 111.782 25.82V35H110.142ZM122.796 35C122.356 35 121.949 34.8933 121.576 34.68C121.216 34.4533 120.923 34.16 120.696 33.8C120.483 33.4267 120.376 33.02 120.376 32.58V28.38H130.536V25.82C130.536 25.6067 130.456 25.4267 130.296 25.28C130.149 25.12 129.969 25.04 129.756 25.04H120.376V23.4H129.756C130.209 23.4 130.616 23.5133 130.976 23.74C131.349 23.9533 131.643 24.2467 131.856 24.62C132.083 24.98 132.196 25.38 132.196 25.82V35H122.796ZM122.796 33.36H130.536V30.02H122.016V32.58C122.016 32.7933 122.089 32.98 122.236 33.14C122.396 33.2867 122.583 33.36 122.796 33.36ZM136.703 35C136.249 35 135.836 34.8933 135.463 34.68C135.103 34.4533 134.816 34.16 134.603 33.8C134.389 33.4267 134.283 33.02 134.283 32.58V19.6H135.923V23.4H140.943V25.04H135.923V32.58C135.923 32.7933 135.996 32.98 136.143 33.14C136.303 33.2867 136.489 33.36 136.703 33.36H140.943V35H136.703ZM144.866 35C144.426 35 144.019 34.8933 143.646 34.68C143.286 34.4533 142.992 34.16 142.766 33.8C142.552 33.4267 142.446 33.02 142.446 32.58V25.82C142.446 25.38 142.552 24.98 142.766 24.62C142.992 24.2467 143.286 23.9533 143.646 23.74C144.019 23.5133 144.426 23.4 144.866 23.4H151.826C152.279 23.4 152.686 23.5133 153.046 23.74C153.419 23.9533 153.712 24.2467 153.926 24.62C154.152 24.98 154.266 25.38 154.266 25.82V30.02H144.086V32.58C144.086 32.7933 144.159 32.98 144.306 33.14C144.466 33.2867 144.652 33.36 144.866 33.36H154.266V35H144.866ZM144.086 28.38H152.606V25.82C152.606 25.6067 152.526 25.4267 152.366 25.28C152.219 25.12 152.039 25.04 151.826 25.04H144.866C144.652 25.04 144.466 25.12 144.306 25.28C144.159 25.4267 144.086 25.6067 144.086 25.82V28.38Z" fill="white"/>
</g>
<defs>
<filter id="filter0_d_70_5" x="0" y="0" width="245" height="64" filterUnits="userSpaceOnUse" color-interpolation-filters="sRGB">
<feFlood flood-opacity="0" result="BackgroundImageFix"/>
<feColorMatrix in="SourceAlpha" type="matrix" values="0 0 0 0 0 0 0 0 0 0 0 0 0 0 0 0 0 0 127 0" result="hardAlpha"/>
<feOffset dy="4"/>
<feGaussianBlur stdDeviation="2"/>
<feComposite in2="hardAlpha" operator="out"/>
<feColorMatrix type="matrix" values="0 0 0 0 0 0 0 0 0 0 0 0 0 0 0 0 0 0 0.25 0"/>
<feBlend mode="normal" in2="BackgroundImageFix" result="effect1_dropShadow_70_5"/>
<feBlend mode="normal" in="SourceGraphic" in2="effect1_dropShadow_70_5" result="shape"/>
</filter>
</defs>
</svg>
