<svg width="626" height="36" viewBox="0 0 626 36" fill="none" xmlns="http://www.w3.org/2000/svg">
<path d="M0 36V18H27C27.8125 18 28.5156 17.7188 29.1094 17.1562C29.7031 16.5625 30 15.8438 30 15V12H0V6H36V18C36 19.6875 35.4062 21.1094 34.2188 22.2656C33.0312 23.4219 31.625 24 30 24H6V36H0ZM42 36V18H69C69.8125 18 70.5156 17.7188 71.1094 17.1562C71.7031 16.5625 72 15.8438 72 15V12H48C46.3125 12 44.8906 11.4219 43.7344 10.2656C42.5781 9.07812 42 7.65625 42 6H78V18C78 19.6875 77.4062 21.1094 76.2188 22.2656C75.0312 23.4219 73.625 24 72 24H66L78 36H69L57 24H48V36H42ZM84 36V18H90V30H114V18H120V36H84ZM90 12C88.3125 12 86.8906 11.4219 85.7344 10.2656C84.5781 9.07812 84 7.65625 84 6H120C120 7.6875 119.406 9.10938 118.219 10.2656C117.031 11.4219 115.625 12 114 12H90ZM132 36C130.312 36 128.891 35.4219 127.734 34.2656C126.578 33.0781 126 31.6562 126 30H156V18H162V30C162 31.6875 161.406 33.1094 160.219 34.2656C159.031 35.4219 157.625 36 156 36H132ZM144 12C142.312 12 140.891 11.4219 139.734 10.2656C138.578 9.07812 138 7.65625 138 6H162V12H144ZM174 36C172.312 36 170.891 35.4219 169.734 34.2656C168.578 33.0781 168 31.6562 168 30H204C204 31.6875 203.406 33.1094 202.219 34.2656C201.031 35.4219 199.625 36 198 36H174ZM174 24C172.312 24 170.891 23.4219 169.734 22.2656C168.578 21.0781 168 19.6562 168 18H204C204 19.6875 203.406 21.1094 202.219 22.2656C201.031 23.4219 199.625 24 198 24H174ZM174 12C172.312 12 170.891 11.4219 169.734 10.2656C168.578 9.07812 168 7.65625 168 6H204C204 7.6875 203.406 9.10938 202.219 10.2656C201.031 11.4219 199.625 12 198 12H174ZM216 36C214.312 36 212.891 35.4219 211.734 34.2656C210.578 33.0781 210 31.6562 210 30V18H216V27C216 27.8438 216.281 28.5625 216.844 29.1562C217.438 29.7188 218.156 30 219 30H246C246 31.6875 245.406 33.1094 244.219 34.2656C243.031 35.4219 241.625 36 240 36H216ZM210 12V6H246C246 7.6875 245.406 9.10938 244.219 10.2656C243.031 11.4219 241.625 12 240 12H210ZM267 36V12H258C256.312 12 254.891 11.4219 253.734 10.2656C252.578 9.07812 252 7.65625 252 6H288C288 7.6875 287.406 9.10938 286.219 10.2656C285.031 11.4219 283.625 12 282 12H273V36H267ZM365.391 36C363.703 36 362.281 35.4219 361.125 34.2656C359.969 33.0781 359.391 31.6562 359.391 30V18H365.391V27C365.391 27.8438 365.672 28.5625 366.234 29.1562C366.828 29.7188 367.547 30 368.391 30H389.391V24H377.391C375.703 24 374.281 23.4219 373.125 22.2656C371.969 21.0781 371.391 19.6562 371.391 18H395.391V36H365.391ZM359.391 12V6H395.391C395.391 7.6875 394.797 9.10938 393.609 10.2656C392.422 11.4219 391.016 12 389.391 12H359.391ZM407.391 36C405.703 36 404.281 35.4219 403.125 34.2656C401.969 33.0781 401.391 31.6562 401.391 30H437.391C437.391 31.6875 436.797 33.1094 435.609 34.2656C434.422 35.4219 433.016 36 431.391 36H407.391ZM401.391 24V6H407.391V24H401.391ZM431.391 24V6H437.391V24H431.391ZM443.391 36V6H449.391V36H443.391ZM481.093 36L469.093 0.623998H473.701L483.925 31.824H484.981L495.205 0.623998H499.813L487.813 36H481.093ZM503.462 36V30.336H507.686V36H503.462ZM530.117 36L525.077 30.96V5.664L530.117 0.623998H545.477L550.517 5.664V30.96L545.477 36H530.117ZM532.085 32.112H543.509L546.149 29.472V7.152L543.509 4.512H532.085L529.445 7.152L529.493 29.472L532.085 32.112ZM556.805 36V30.336H561.029V36H556.805ZM572.82 36L567.78 30.96V5.664L572.82 0.623998H588.18L593.22 5.664V30.96L588.18 36H572.82ZM574.788 32.112H586.212L588.852 29.472V7.152L586.212 4.512H574.788L572.148 7.152L572.196 29.472L574.788 32.112ZM599.508 36V30.336H603.732V36H599.508ZM607.219 36V30H613.219V18H619.219V30C620.875 30 622.281 30.5938 623.438 31.7812C624.625 32.9688 625.219 34.375 625.219 36H607.219ZM613.219 12C611.531 12 610.109 11.4219 608.953 10.2656C607.797 9.07812 607.219 7.65625 607.219 6H619.219V12H613.219Z" fill="black"/>
</svg>
