<svg width="608" height="34" viewBox="0 0 608 34" fill="none" xmlns="http://www.w3.org/2000/svg">
<path d="M0 33V15H27C27.8125 15 28.5156 14.7188 29.1094 14.1562C29.7031 13.5625 30 12.8438 30 12V9H0V3H36V15C36 16.6875 35.4062 18.1094 34.2188 19.2656C33.0312 20.4219 31.625 21 30 21H6V33H0ZM42 33V15H69C69.8125 15 70.5156 14.7188 71.1094 14.1562C71.7031 13.5625 72 12.8438 72 12V9H48C46.3125 9 44.8906 8.42188 43.7344 7.26562C42.5781 6.07812 42 4.65625 42 3H78V15C78 16.6875 77.4062 18.1094 76.2188 19.2656C75.0312 20.4219 73.625 21 72 21H66L78 33H69L57 21H48V33H42ZM84 33V15H90V27H114V15H120V33H84ZM90 9C88.3125 9 86.8906 8.42188 85.7344 7.26562C84.5781 6.07812 84 4.65625 84 3H120C120 4.6875 119.406 6.10938 118.219 7.26562C117.031 8.42188 115.625 9 114 9H90ZM132 33C130.312 33 128.891 32.4219 127.734 31.2656C126.578 30.0781 126 28.6562 126 27H156V15H162V27C162 28.6875 161.406 30.1094 160.219 31.2656C159.031 32.4219 157.625 33 156 33H132ZM144 9C142.312 9 140.891 8.42188 139.734 7.26562C138.578 6.07812 138 4.65625 138 3H162V9H144ZM174 33C172.312 33 170.891 32.4219 169.734 31.2656C168.578 30.0781 168 28.6562 168 27H204C204 28.6875 203.406 30.1094 202.219 31.2656C201.031 32.4219 199.625 33 198 33H174ZM174 21C172.312 21 170.891 20.4219 169.734 19.2656C168.578 18.0781 168 16.6562 168 15H204C204 16.6875 203.406 18.1094 202.219 19.2656C201.031 20.4219 199.625 21 198 21H174ZM174 9C172.312 9 170.891 8.42188 169.734 7.26562C168.578 6.07812 168 4.65625 168 3H204C204 4.6875 203.406 6.10938 202.219 7.26562C201.031 8.42188 199.625 9 198 9H174ZM216 33C214.312 33 212.891 32.4219 211.734 31.2656C210.578 30.0781 210 28.6562 210 27V15H216V24C216 24.8438 216.281 25.5625 216.844 26.1562C217.438 26.7188 218.156 27 219 27H246C246 28.6875 245.406 30.1094 244.219 31.2656C243.031 32.4219 241.625 33 240 33H216ZM210 9V3H246C246 4.6875 245.406 6.10938 244.219 7.26562C243.031 8.42188 241.625 9 240 9H210ZM267 33V9H258C256.312 9 254.891 8.42188 253.734 7.26562C252.578 6.07812 252 4.65625 252 3H288C288 4.6875 287.406 6.10938 286.219 7.26562C285.031 8.42188 283.625 9 282 9H273V33H267ZM365.391 33C363.703 33 362.281 32.4219 361.125 31.2656C359.969 30.0781 359.391 28.6562 359.391 27V15H365.391V24C365.391 24.8438 365.672 25.5625 366.234 26.1562C366.828 26.7188 367.547 27 368.391 27H389.391V21H377.391C375.703 21 374.281 20.4219 373.125 19.2656C371.969 18.0781 371.391 16.6562 371.391 15H395.391V33H365.391ZM359.391 9V3H395.391C395.391 4.6875 394.797 6.10938 393.609 7.26562C392.422 8.42188 391.016 9 389.391 9H359.391ZM407.391 33C405.703 33 404.281 32.4219 403.125 31.2656C401.969 30.0781 401.391 28.6562 401.391 27H437.391C437.391 28.6875 436.797 30.1094 435.609 31.2656C434.422 32.4219 433.016 33 431.391 33H407.391ZM401.391 21V3H407.391V21H401.391ZM431.391 21V3H437.391V21H431.391ZM443.391 33V3H449.391V33H443.391ZM502.641 1.21875V2.08594C501.484 2.27344 500.453 2.89062 499.547 3.9375C498.891 4.71875 497.914 6.55469 496.617 9.44531L485.672 33.7266H484.898L474 8.46094C472.688 5.41406 471.805 3.625 471.352 3.09375C470.914 2.5625 470.078 2.22656 468.844 2.08594V1.21875H484.078V2.08594H483.562C482.188 2.08594 481.25 2.25781 480.75 2.60156C480.391 2.83594 480.211 3.17969 480.211 3.63281C480.211 3.91406 480.273 4.25 480.398 4.64062C480.523 5.01562 480.945 6.03906 481.664 7.71094L488.438 23.5312L494.719 9.44531C495.469 7.74219 495.93 6.60156 496.102 6.02344C496.273 5.44531 496.359 4.95312 496.359 4.54688C496.359 4.07812 496.234 3.66406 495.984 3.30469C495.734 2.94531 495.367 2.67188 494.883 2.48438C494.211 2.21875 493.32 2.08594 492.211 2.08594V1.21875H502.641ZM509.156 25.7812C510.25 25.7812 511.172 26.1641 511.922 26.9297C512.688 27.6953 513.07 28.6172 513.07 29.6953C513.07 30.7734 512.688 31.6953 511.922 32.4609C511.156 33.2109 510.234 33.5859 509.156 33.5859C508.078 33.5859 507.156 33.2109 506.391 32.4609C505.641 31.6953 505.266 30.7734 505.266 29.6953C505.266 28.6172 505.641 27.6953 506.391 26.9297C507.156 26.1641 508.078 25.7812 509.156 25.7812ZM537.398 17.1094C537.398 20.2812 536.953 23.2422 536.062 25.9922C535.531 27.6797 534.812 29.0625 533.906 30.1406C533.016 31.2188 532 32.0781 530.859 32.7188C529.719 33.3438 528.477 33.6562 527.133 33.6562C525.602 33.6562 524.219 33.2656 522.984 32.4844C521.75 31.7031 520.656 30.5859 519.703 29.1328C519.016 28.0703 518.414 26.6562 517.898 24.8906C517.227 22.5 516.891 20.0312 516.891 17.4844C516.891 14.0312 517.375 10.8594 518.344 7.96875C519.141 5.57812 520.352 3.75 521.977 2.48438C523.602 1.20312 525.32 0.5625 527.133 0.5625C528.977 0.5625 530.695 1.19531 532.289 2.46094C533.898 3.71094 535.078 5.39844 535.828 7.52344C536.875 10.4453 537.398 13.6406 537.398 17.1094ZM530.18 17.0625C530.18 11.5 530.148 8.25781 530.086 7.33594C529.93 5.16406 529.555 3.69531 528.961 2.92969C528.57 2.42969 527.938 2.17969 527.062 2.17969C526.391 2.17969 525.859 2.36719 525.469 2.74219C524.891 3.28906 524.5 4.25781 524.297 5.64844C524.094 7.02344 523.992 11.8438 523.992 20.1094C523.992 24.6094 524.148 27.625 524.461 29.1562C524.695 30.2656 525.031 31.0078 525.469 31.3828C525.906 31.7578 526.484 31.9453 527.203 31.9453C527.984 31.9453 528.57 31.6953 528.961 31.1953C529.617 30.3203 529.992 28.9688 530.086 27.1406L530.18 17.0625ZM545.156 25.7812C546.25 25.7812 547.172 26.1641 547.922 26.9297C548.688 27.6953 549.07 28.6172 549.07 29.6953C549.07 30.7734 548.688 31.6953 547.922 32.4609C547.156 33.2109 546.234 33.5859 545.156 33.5859C544.078 33.5859 543.156 33.2109 542.391 32.4609C541.641 31.6953 541.266 30.7734 541.266 29.6953C541.266 28.6172 541.641 27.6953 542.391 26.9297C543.156 26.1641 544.078 25.7812 545.156 25.7812ZM573.398 17.1094C573.398 20.2812 572.953 23.2422 572.062 25.9922C571.531 27.6797 570.812 29.0625 569.906 30.1406C569.016 31.2188 568 32.0781 566.859 32.7188C565.719 33.3438 564.477 33.6562 563.133 33.6562C561.602 33.6562 560.219 33.2656 558.984 32.4844C557.75 31.7031 556.656 30.5859 555.703 29.1328C555.016 28.0703 554.414 26.6562 553.898 24.8906C553.227 22.5 552.891 20.0312 552.891 17.4844C552.891 14.0312 553.375 10.8594 554.344 7.96875C555.141 5.57812 556.352 3.75 557.977 2.48438C559.602 1.20312 561.32 0.5625 563.133 0.5625C564.977 0.5625 566.695 1.19531 568.289 2.46094C569.898 3.71094 571.078 5.39844 571.828 7.52344C572.875 10.4453 573.398 13.6406 573.398 17.1094ZM566.18 17.0625C566.18 11.5 566.148 8.25781 566.086 7.33594C565.93 5.16406 565.555 3.69531 564.961 2.92969C564.57 2.42969 563.938 2.17969 563.062 2.17969C562.391 2.17969 561.859 2.36719 561.469 2.74219C560.891 3.28906 560.5 4.25781 560.297 5.64844C560.094 7.02344 559.992 11.8438 559.992 20.1094C559.992 24.6094 560.148 27.625 560.461 29.1562C560.695 30.2656 561.031 31.0078 561.469 31.3828C561.906 31.7578 562.484 31.9453 563.203 31.9453C563.984 31.9453 564.57 31.6953 564.961 31.1953C565.617 30.3203 565.992 28.9688 566.086 27.1406L566.18 17.0625ZM581.156 25.7812C582.25 25.7812 583.172 26.1641 583.922 26.9297C584.688 27.6953 585.07 28.6172 585.07 29.6953C585.07 30.7734 584.688 31.6953 583.922 32.4609C583.156 33.2109 582.234 33.5859 581.156 33.5859C580.078 33.5859 579.156 33.2109 578.391 32.4609C577.641 31.6953 577.266 30.7734 577.266 29.6953C577.266 28.6172 577.641 27.6953 578.391 26.9297C579.156 26.1641 580.078 25.7812 581.156 25.7812ZM602.789 0.5625V26.5547C602.789 28.5078 602.875 29.7578 603.047 30.3047C603.219 30.8359 603.578 31.2734 604.125 31.6172C604.672 31.9609 605.547 32.1328 606.75 32.1328H607.477V33H590.742V32.1328H591.586C592.945 32.1328 593.914 31.9766 594.492 31.6641C595.07 31.3516 595.461 30.9219 595.664 30.375C595.867 29.8281 595.969 28.5547 595.969 26.5547V10.0781C595.969 8.60938 595.898 7.69531 595.758 7.33594C595.617 6.96094 595.352 6.64844 594.961 6.39844C594.586 6.13281 594.148 6 593.648 6C592.852 6 591.883 6.25 590.742 6.75L590.32 5.90625L602.016 0.5625H602.789Z" fill="black"/>
</svg>
