<svg width="648" height="35" viewBox="0 0 648 35" fill="none" xmlns="http://www.w3.org/2000/svg">
<path d="M0 35V17H27C27.8125 17 28.5156 16.7188 29.1094 16.1562C29.7031 15.5625 30 14.8438 30 14V11H0V5H36V17C36 18.6875 35.4062 20.1094 34.2188 21.2656C33.0312 22.4219 31.625 23 30 23H6V35H0ZM42 35V17H69C69.8125 17 70.5156 16.7188 71.1094 16.1562C71.7031 15.5625 72 14.8438 72 14V11H48C46.3125 11 44.8906 10.4219 43.7344 9.26562C42.5781 8.07812 42 6.65625 42 5H78V17C78 18.6875 77.4062 20.1094 76.2188 21.2656C75.0312 22.4219 73.625 23 72 23H66L78 35H69L57 23H48V35H42ZM84 35V17H90V29H114V17H120V35H84ZM90 11C88.3125 11 86.8906 10.4219 85.7344 9.26562C84.5781 8.07812 84 6.65625 84 5H120C120 6.6875 119.406 8.10938 118.219 9.26562C117.031 10.4219 115.625 11 114 11H90ZM132 35C130.312 35 128.891 34.4219 127.734 33.2656C126.578 32.0781 126 30.6562 126 29H156V17H162V29C162 30.6875 161.406 32.1094 160.219 33.2656C159.031 34.4219 157.625 35 156 35H132ZM144 11C142.312 11 140.891 10.4219 139.734 9.26562C138.578 8.07812 138 6.65625 138 5H162V11H144ZM174 35C172.312 35 170.891 34.4219 169.734 33.2656C168.578 32.0781 168 30.6562 168 29H204C204 30.6875 203.406 32.1094 202.219 33.2656C201.031 34.4219 199.625 35 198 35H174ZM174 23C172.312 23 170.891 22.4219 169.734 21.2656C168.578 20.0781 168 18.6562 168 17H204C204 18.6875 203.406 20.1094 202.219 21.2656C201.031 22.4219 199.625 23 198 23H174ZM174 11C172.312 11 170.891 10.4219 169.734 9.26562C168.578 8.07812 168 6.65625 168 5H204C204 6.6875 203.406 8.10938 202.219 9.26562C201.031 10.4219 199.625 11 198 11H174ZM216 35C214.312 35 212.891 34.4219 211.734 33.2656C210.578 32.0781 210 30.6562 210 29V17H216V26C216 26.8438 216.281 27.5625 216.844 28.1562C217.438 28.7188 218.156 29 219 29H246C246 30.6875 245.406 32.1094 244.219 33.2656C243.031 34.4219 241.625 35 240 35H216ZM210 11V5H246C246 6.6875 245.406 8.10938 244.219 9.26562C243.031 10.4219 241.625 11 240 11H210ZM267 35V11H258C256.312 11 254.891 10.4219 253.734 9.26562C252.578 8.07812 252 6.65625 252 5H288C288 6.6875 287.406 8.10938 286.219 9.26562C285.031 10.4219 283.625 11 282 11H273V35H267ZM309.862 35V6.2C309.862 5.144 310.118 4.184 310.63 3.32C311.142 2.424 311.83 1.72 312.694 1.208C313.59 0.695998 314.566 0.439999 315.622 0.439999H338.662C339.718 0.439999 340.678 0.695998 341.542 1.208C342.438 1.72 343.142 2.424 343.654 3.32C344.166 4.184 344.422 5.144 344.422 6.2V35H340.534V22.376H313.75V35H309.862ZM313.75 18.488H340.534V6.2C340.534 5.688 340.342 5.256 339.958 4.904C339.606 4.52 339.174 4.328 338.662 4.328H315.622C315.11 4.328 314.662 4.52 314.278 4.904C313.926 5.256 313.75 5.688 313.75 6.2V18.488ZM379.359 35C377.672 35 376.25 34.4219 375.094 33.2656C373.938 32.0781 373.359 30.6562 373.359 29V17H379.359V26C379.359 26.8438 379.641 27.5625 380.203 28.1562C380.797 28.7188 381.516 29 382.359 29H403.359V23H391.359C389.672 23 388.25 22.4219 387.094 21.2656C385.938 20.0781 385.359 18.6562 385.359 17H409.359V35H379.359ZM373.359 11V5H409.359C409.359 6.6875 408.766 8.10938 407.578 9.26562C406.391 10.4219 404.984 11 403.359 11H373.359ZM421.359 35C419.672 35 418.25 34.4219 417.094 33.2656C415.938 32.0781 415.359 30.6562 415.359 29H451.359C451.359 30.6875 450.766 32.1094 449.578 33.2656C448.391 34.4219 446.984 35 445.359 35H421.359ZM415.359 23V5H421.359V23H415.359ZM445.359 23V5H451.359V23H445.359ZM457.359 35V5H463.359V35H457.359ZM488.39 7.4L498.278 23.96V35L482.918 9.176L488.39 7.4ZM510.566 7.4L500.63 23.96V35L515.99 9.176L510.566 7.4ZM511.965 28.376H518.589V35H511.965V28.376ZM573.917 10.712V31.688L568.445 35H558.269V29.528H567.869V14.456L558.269 24.632V16.232L561.197 12.872H558.461V7.4H567.869L573.917 10.712ZM546.701 27.944L556.109 17.96V26.216L553.373 29.528H556.109V35H549.437H546.125L540.653 31.688V10.712L546.701 7.4H556.109V12.872H546.701V27.944ZM578.621 28.376H585.245V35H578.621V28.376ZM623.323 10.712V31.688L617.851 35H607.675V29.528H617.275V14.456L607.675 24.632V16.232L610.603 12.872H607.867V7.4H617.275L623.323 10.712ZM596.107 27.944L605.515 17.96V26.216L602.779 29.528H605.515V35H598.843H595.531L590.059 31.688V10.712L596.107 7.4H605.515V12.872H596.107V27.944ZM628.028 28.376H634.652V35H628.028V28.376ZM647.962 7.304V35L642.49 34.952V13.88L632.554 18.008V11.768L642.49 7.304H647.962Z" fill="black"/>
</svg>
